<?xml version="1.0" encoding="utf-8"?>
<!-- Generator: Adobe Illustrator 23.0.3, SVG Export Plug-In . SVG Version: 6.00 Build 0)  -->
<svg version="1.1" id="圖層_1" xmlns="http://www.w3.org/2000/svg" xmlns:xlink="http://www.w3.org/1999/xlink" x="0px" y="0px"
	 viewBox="0 0 500 300" style="enable-background:new 0 0 500 300;" xml:space="preserve">
<style type="text/css">
	.st0{fill:#231815;}
</style>
<title>title-h</title>
<path class="st0" d="M67.2,149.7v12h-6.9l-0.4-5h-8.3v31.8l4.8,0.9v5.4H37.7v-5.4l4.8-0.9v-31.8h-8.3l-0.4,5H27v-12L67.2,149.7z"/>
<path class="st0" d="M104.7,164.1h-6.8l-1.2-6.2c-1.1-0.6-2.2-1-3.4-1.3c-1.6-0.4-3.2-0.6-4.8-0.6c-2-0.1-4.1,0.4-5.7,1.6
	c-1.3,0.9-2,2.4-2,4c0,1.5,0.8,3,2.1,3.8c2.3,1.4,4.7,2.4,7.3,3.1c5,1.4,8.7,3.2,11.3,5.5c2.6,2.3,4,5.6,3.9,9
	c0.1,3.6-1.6,7.1-4.6,9.1c-3.1,2.2-7.1,3.3-12.1,3.4c-3.3,0.1-6.6-0.5-9.7-1.7c-2.7-1-5.2-2.6-7.2-4.7v-9.4h7l1,6.4
	c1.1,0.8,2.4,1.5,3.7,1.8c1.7,0.5,3.5,0.8,5.2,0.7c2,0.1,4-0.4,5.7-1.5c1.2-0.9,2-2.4,1.9-4c0.1-1.6-0.6-3.1-1.8-4.2
	c-1.9-1.4-4.1-2.4-6.4-3c-5.3-1.6-9.4-3.4-12.1-5.5c-2.7-2.1-4.3-5.3-4.1-8.7c0-3.6,1.7-6.9,4.6-8.9c3.4-2.4,7.5-3.7,11.7-3.6
	c3.2,0,6.4,0.5,9.5,1.6c2.6,0.9,5.1,2.4,7.2,4.2L104.7,164.1z"/>
<path class="st0" d="M108.7,189.4l3.2-0.5l13.7-39.2h9.3l13.6,39.2l3.2,0.5v5.4h-15.3v-5.4l3.1-0.6l-2-6.2h-14.6l-2,6.2l3.1,0.6v5.4
	h-15.3V189.4z M125,176h10.3l-5.1-15.9h-0.2L125,176z"/>
<path class="st0" d="M201.7,149.7v5.4l-4.8,0.9v38.7h-9l-18.2-30.3h-0.2v24l4.8,0.9v5.4h-18.7v-5.4l4.8-0.9v-32.3l-4.8-0.9v-5.4
	h13.8l18.2,30.3h0.2v-24l-4.8-0.9v-5.4L201.7,149.7L201.7,149.7z"/>
<path class="st0" d="M241.9,189.8c-1.9,1.7-4,3-6.4,3.9c-3.4,1.3-7,1.9-10.6,1.8c-5.6,0.2-11-2-14.9-6.1c-3.8-4.1-5.7-9.4-5.7-15.9
	v-1.5c0-6.7,1.9-12.2,5.6-16.5c3.7-4.2,9.1-6.5,14.8-6.3c3.3,0,6.6,0.5,9.7,1.7c2.7,1,5.2,2.5,7.3,4.6v9.1H235l-1.3-6
	c-1-0.8-2.1-1.3-3.3-1.7c-1.5-0.4-3.1-0.7-4.7-0.6c-3.6-0.2-7,1.5-9.2,4.4c-2.2,2.9-3.3,6.7-3.3,11.4v1.6c0,4.6,1.1,8.2,3.2,11
	s5.2,4.1,9.3,4.1c1.5,0,3-0.1,4.4-0.5c0.9-0.2,1.8-0.6,2.6-1.1v-7.7l-6.4-0.5v-6.4H242L241.9,189.8z"/>
<path class="st0" d="M297.4,164.1h-6.8l-1.2-6.2c-1.1-0.6-2.2-1-3.4-1.3c-1.6-0.4-3.2-0.6-4.8-0.6c-2-0.1-4.1,0.4-5.7,1.6
	c-1.3,0.9-2,2.4-2,4c0,1.5,0.8,3,2.1,3.8c2.3,1.4,4.8,2.4,7.3,3.1c5,1.4,8.7,3.2,11.3,5.5c2.6,2.3,4,5.6,3.9,9
	c0.1,3.6-1.6,7.1-4.6,9.1c-3.1,2.2-7.1,3.3-12.1,3.4c-3.3,0-6.6-0.5-9.7-1.7c-2.7-1-5.2-2.6-7.2-4.7v-9.4h7l1,6.4
	c1.1,0.8,2.4,1.5,3.7,1.8c1.7,0.5,3.4,0.8,5.2,0.7c2,0.1,4-0.4,5.6-1.5c1.3-0.9,2-2.4,1.9-4c0.1-1.6-0.6-3.1-1.9-4.2
	c-1.9-1.4-4.1-2.4-6.5-3c-5.3-1.6-9.4-3.4-12.1-5.5c-2.7-2.1-4.2-5.3-4.1-8.7c0-3.6,1.7-6.9,4.6-8.9c3.4-2.4,7.5-3.7,11.7-3.6
	c3.2,0,6.4,0.5,9.5,1.6c2.6,0.9,5.1,2.4,7.2,4.2L297.4,164.1z"/>
<path class="st0" d="M302.1,189.4l4.4-0.9v-20.8l-4.8-0.9v-5.4h13.9v27.1l4.3,0.9v5.4h-17.7V189.4z M315.5,153.3h-9v-6.8h9V153.3z"
	/>
<path class="st0" d="M345.8,190.5c-2.1,3.1-5.6,5-9.4,4.9c-3.1,0.2-6.2-1.1-8.3-3.4c-2-2.3-3-5.8-3-10.5v-13.8l-3.7-0.9v-5.4h12.7
	v20.3c0,2.4,0.4,4.2,1.2,5.3c0.9,1.1,2.2,1.7,3.6,1.6c1.3,0,2.5-0.2,3.7-0.7c1-0.4,1.9-1.1,2.6-2v-18l-4-0.9v-5.4h13v27.1l4.1,0.9
	v5.4h-12L345.8,190.5z"/>
<path class="st0" d="M378.4,155.2v-5.4h18.7v5.4l-4.8,0.9v13h18.4v-13l-4.8-0.9v-5.4h18.7v5.4l-4.8,0.9v32.3l4.8,0.9v5.4h-18.7v-5.4
	l4.8-0.9v-12.4h-18.4v12.4l4.8,0.9v5.4h-18.7v-5.4l4.8-0.9v-32.3L378.4,155.2z"/>
<path class="st0" d="M443.8,195.4c-4.8,0-8.7-1.5-11.6-4.6c-2.9-3.2-4.5-7.4-4.3-11.8v-1.2c0-5,1.4-9.1,4.1-12.3
	c2.7-3.2,6.8-5,11-4.8c4.5,0,8,1.4,10.5,4.1s3.8,6.4,3.7,11.1v4.9h-20l-0.1,0.2c0.1,2,0.9,3.9,2.2,5.4c1.4,1.5,3.3,2.2,5.3,2.1
	c1.7,0,3.4-0.2,5-0.6c1.5-0.5,3-1.1,4.3-1.9l2.5,5.6c-1.6,1.2-3.4,2.1-5.4,2.8C448.8,195.1,446.3,195.5,443.8,195.4z M443,167.6
	c-1.6-0.1-3.1,0.6-4,1.9c-1,1.5-1.7,3.2-1.8,5l0.1,0.1h11.1V174c0.1-1.6-0.4-3.3-1.4-4.6C446,168.2,444.5,167.6,443,167.6L443,167.6
	z"/>
<path class="st0" d="M461.3,189.4l4.4-0.9v-20.8l-4.8-0.9v-5.4h13.9v27.1l4.3,0.9v5.4h-17.7V189.4z M474.7,153.3h-9v-6.8h9V153.3z"
	/>
<path class="st0" d="M287.8,214.1c5.1-0.2,10,1.7,13.6,5.3c3.6,3.6,5.5,8.5,5.4,13.5v7.5c0.2,5.1-1.8,10-5.4,13.5
	c-3.6,3.5-8.6,5.4-13.6,5.2h-20.3v-5.4l4.8-0.9v-32.3l-4.8-0.9v-5.4H287.8z M281.3,221.1v31.2h6c2.9,0.1,5.7-1.1,7.6-3.3
	c1.9-2.4,2.9-5.5,2.8-8.6v-7.5c0.1-3.1-0.8-6.1-2.8-8.5c-1.9-2.2-4.7-3.4-7.6-3.3L281.3,221.1z"/>
<path class="st0" d="M332.9,259.2c-0.2-0.6-0.5-1.1-0.6-1.7c-0.2-0.6-0.3-1.2-0.4-1.8c-1.1,1.3-2.4,2.3-3.9,3
	c-1.6,0.8-3.4,1.2-5.3,1.1c-2.9,0.2-5.7-0.8-7.8-2.7c-2-1.9-3-4.6-2.9-7.3c-0.1-2.9,1.3-5.7,3.8-7.3c2.5-1.7,6.2-2.6,11.1-2.6h4.6
	v-3.3c0.1-1.4-0.4-2.7-1.4-3.8c-1.1-1-2.6-1.4-4.1-1.3c-0.9,0-1.9,0.1-2.8,0.4c-0.7,0.2-1.3,0.5-2,0.9l-0.6,3.6h-6.8V229
	c1.8-1.2,3.7-2.1,5.7-2.8c2.2-0.8,4.6-1.2,7-1.1c3.6-0.2,7.2,0.9,10.1,3c2.6,2.1,4.1,5.3,3.9,8.7v13.8c0,0.5,0,1,0,1.5
	c0,0.4,0,0.9,0.1,1.3l2.8,0.4v5.4L332.9,259.2z M325,253.2c1.3,0,2.6-0.3,3.7-0.9c1-0.5,1.9-1.3,2.6-2.2V245h-4.6
	c-1.6-0.1-3.1,0.4-4.4,1.4c-0.9,0.8-1.5,2-1.5,3.2c-0.1,1,0.3,2,1.1,2.7C322.9,252.9,323.9,253.2,325,253.2L325,253.2z"/>
<path class="st0" d="M346.5,231.1v-5.4h13.2l0.4,4.4c1-1.6,2.4-2.8,4-3.7c1.7-0.9,3.7-1.4,5.6-1.3c1.9-0.1,3.8,0.4,5.5,1.4
	c1.6,1,2.8,2.5,3.5,4.3c1-1.7,2.3-3.2,4-4.2c1.8-1,3.8-1.6,5.8-1.5c3-0.1,5.9,1.1,7.8,3.4c1.9,2.3,2.9,5.8,2.9,10.4v13.9l4.4,0.9
	v5.4h-17.3v-5.4l3.9-0.9v-14c0-2.5-0.4-4.3-1.2-5.3c-0.9-1-2.3-1.6-3.7-1.5c-2.3-0.1-4.5,1.2-5.6,3.2c0,0.4,0,0.7,0,1s0,0.6,0,0.9
	v15.7l3.6,0.9v5.4h-16.2v-5.4l3.7-0.9v-14c0-2.5-0.4-4.2-1.2-5.3c-0.9-1.1-2.3-1.6-3.7-1.5c-1.1,0-2.2,0.2-3.2,0.7
	c-0.9,0.5-1.7,1.2-2.3,2v18.1l3.9,0.9v5.4H347v-5.4l4.4-0.9v-20.7L346.5,231.1z"/>
<path class="st0" d="M406.3,242.1c0-5,1.4-9.1,4.2-12.3c2.8-3.2,6.7-4.8,11.6-4.8c4.9,0,8.8,1.6,11.6,4.8s4.2,7.3,4.2,12.3v0.6
	c0,5-1.4,9.1-4.2,12.3c-2.8,3.2-6.6,4.7-11.6,4.7c-5,0-8.9-1.6-11.6-4.7c-2.8-3.2-4.2-7.3-4.2-12.3V242.1z M415.3,242.8
	c-0.1,2.6,0.4,5.1,1.6,7.4c1.1,1.8,3.1,2.9,5.2,2.8c2.1,0.1,4.1-1,5.1-2.8c1.2-2.3,1.7-4.8,1.6-7.3v-0.6c0.1-2.5-0.5-5-1.6-7.3
	c-1-1.8-3.1-2.9-5.2-2.8c-2.1-0.1-4.1,1-5.1,2.8c-1.2,2.2-1.7,4.7-1.6,7.3L415.3,242.8z"/>
<path class="st0" d="M441.2,253.8l4.3-0.9v-20.8l-4.8-0.9v-5.5H454l0.4,4.8c1-1.6,2.4-3,4.1-4c1.7-1,3.6-1.5,5.5-1.4
	c3-0.2,5.9,1,7.9,3.2c1.9,2.1,2.8,5.5,2.8,10v14.6l4.3,0.9v5.4h-17.3v-5.4l3.9-0.9v-14.5c0-2.3-0.5-3.8-1.4-4.8
	c-1.1-1-2.6-1.5-4.1-1.4c-1.1,0-2.2,0.2-3.2,0.7c-0.9,0.5-1.8,1.2-2.4,2.1v18l3.6,0.9v5.4h-17L441.2,253.8z"/>
<path class="st0" d="M67.3,43.5c0.7-1.2,1.5-2.7,2.3-4.4l6.3,4.7c-0.6,0.9-2.4,1.4-5.3,1.7c1.8,2.2,4.8,4.1,8.9,5.8
	c4.3,1.8,8.8,3,13.4,3.5l0.1,0.8c-1.5,0.6-2.9,1.5-3.9,2.8c-1.1,1.3-1.8,2.8-2.2,4.4c-1-0.5-2.1-1-3.2-1.6v15.1
	c-0.1,0.3-0.8,0.7-2.3,1.2c-1.2,0.5-2.5,0.7-3.8,0.8h-1.1c3.6,2.6,5.4,4.2,5.4,4.9c0,0.3-0.2,0.5-0.7,0.7L80,84.4V91
	c0.1,5.5,0.3,9.7,0.5,12.7c-0.3,0.5-1.2,1-2.8,1.6c-1.4,0.5-2.9,0.8-4.4,0.9c-1.1,0-1.6-0.5-1.6-1.4l0.3-1.5v-1.5h-23v2.1
	c0,0.2-0.3,0.6-1,1c-0.8,0.5-1.7,0.9-2.6,1.1c-1,0.3-2.1,0.5-3.1,0.5c-0.5,0-1-0.1-1.3-0.4c-0.3-0.2-0.5-0.6-0.5-1
	c0.4-6.2,0.6-11.8,0.7-16.9v-9.2c-0.8,0.2-1.6,0.3-2.5,0.3h-1.3V60.7c-2.8,1.4-5.7,2.6-8.7,3.5L28,63.3c3.7-2.5,7.1-5.5,10-8.8
	c3.1-3.5,5.5-7.5,6.9-12c5.9,3.3,8.9,5.3,8.9,6c0,0.2-0.2,0.3-0.5,0.3L52,49.1c-2.2,2.6-4.7,4.9-7.5,6.9l0.9,0.3h30.4l0.6-0.5
	c-3.2-2.9-5.7-6.4-7.3-10.3h-5.3c-3.3,0.1-6.6,0.4-9.8,1L52.1,43c2.6,0.3,5.7,0.5,9.4,0.5L67.3,43.5z M220.9,87.5h0.9
	c0.9,2.7,1.2,5.5,0.9,8.3c-0.2,2.1-0.9,4.1-2,5.9c-0.9,1.4-2.1,2.6-3.6,3.4c-1.2,0.7-2.6,0.9-4,0.6c-1.3-0.3-2.3-1.2-2.7-2.5
	c-0.4-1.1-0.3-2.2,0.2-3.2c0.6-1,1.4-1.8,2.5-2.3c2-0.8,3.8-2.2,5.2-3.9C219.8,92.1,220.7,89.8,220.9,87.5L220.9,87.5z M139.9,73.5
	c-6.9,7-10.9,11.1-12.3,12.4c-0.1,0.9-0.6,1.7-1.4,2.1l-5.8-8.7c2.8-1,9.3-3.6,19.5-7.8V54.3c0.1-4.8-0.2-9.7-0.9-14.4
	c6.9,1.6,10.3,2.7,10.3,3.4c0,0.2-0.2,0.4-0.6,0.6l-1.2,0.8v26.8c0,3.8-0.5,7.7-1.4,11.4c-0.9,3.4-2.4,6.5-4.5,9.3
	c-2.3,3.1-5.1,5.6-8.5,7.5c-4.1,2.4-8.5,4.1-13.1,5.3l-0.3-0.8c7-3.3,12-7.5,15.1-12.4S139.6,80.7,139.9,73.5L139.9,73.5z M235.2,81
	l1.6-2.6c1.1-1.8,1.9-2.7,2.1-2.7s1.5,0.9,3.3,2.7s2.7,3,2.7,3.5c-0.2,0.7-0.8,1.1-1.9,1.1h-22.6v1.9c0,0.2-0.2,0.4-0.6,0.8
	c-0.6,0.4-1.3,0.7-2,0.9c-0.9,0.3-1.9,0.5-2.9,0.4c-0.5,0-1-0.1-1.4-0.4c-0.3-0.2-0.5-0.6-0.6-1c0.4-6.1,0.7-12.2,0.8-18.3V55.6
	c0.1-4.8-0.2-9.7-0.8-14.4l8.7,3.5h12.1l1.7-2.3l0.5-0.7l0.5-0.7c0.1-0.2,0.3-0.4,0.4-0.5c0.1-0.2,0.3-0.3,0.4-0.4
	c0.1-0.1,0.2-0.1,0.3-0.1c0.5,0,1.7,0.8,3.6,2.4c2,1.6,3,2.7,3,3.2c-0.2,0.7-0.8,1.1-1.9,1.1H234v8.5h1.6l1-1.3
	c0.9-1,1.4-1.4,1.6-1.4c0.5,0,1.4,0.6,3,1.7s2.3,2,2.3,2.5c-0.6,0.6-1.4,1-2.3,1.2v4.4c0.1,4.5,0.3,7.3,0.3,8.4
	c-0.5,0.6-1.2,1-1.9,1.3c-0.9,0.4-1.8,0.6-2.8,0.7h-0.8v-2.4H234v10.8L235.2,81z M130.4,65.1c-0.3-4.9-2.5-10.1-6.5-15.6l0.7-0.4
	c6.5,2.1,10.6,5.2,12.4,9.3c1.1,2.6,1,4.8-0.3,6.5c-0.9,1.5-2.9,2.1-4.5,1.3C131.5,65.9,130.9,65.5,130.4,65.1L130.4,65.1z
	 M234,57.2v0.3c0,0.2-0.2,0.4-0.5,0.7c-0.5,0.4-1,0.6-1.5,0.8c-0.7,0.3-1.5,0.4-2.2,0.4h-0.8V46.8h-8.5v34.2h8.5v-1.3
	c0-4.8-0.3-9.7-1-14.4l6.9,2.9h1.2V57.2H234z M222.6,63.7c0-3.4-0.2-6.8-0.6-10.2c3.8,1.3,5.7,2.2,5.7,2.8c-0.1,0.2-0.2,0.4-0.4,0.5
	l-0.8,0.5v14.8c0,0.3-0.3,0.6-1,0.9c-0.7,0.3-1.4,0.5-2.1,0.5h-0.8L222.6,63.7z M44.5,76.7c0,0.5-0.7,1-2,1.6l6.9,2.8h22l3.5-4.1
	l1.4,1.2v-2.9H44.5C44.5,75.3,44.5,76.7,44.5,76.7z M57,73.3V58.5H44.5v14.9H57z M48.5,69.7c0.1-3.2-0.7-6.3-2.4-9l0.7-0.5
	c4.4,1.5,6.9,3.6,7.6,6.3c0.5,1.5-0.1,3.1-1.4,4c-1.4,1-2.9,0.8-4.3-0.6C48.6,69.9,48.6,69.8,48.5,69.7L48.5,69.7z M230,102.8
	c0.8-4.8,0.6-9.7-0.7-14.4l0.8-0.3c4.9,3.2,7.6,6.7,7.8,10.7c0.2,2.5-0.6,4.4-2.2,5.5c-1.6,1.1-3.3,0.9-5-0.7
	C230.5,103.4,230.2,103.1,230,102.8L230,102.8z M48.9,90.3h23v-7.2h-23V90.3z M48.9,92.2v7.6h23v-7.6H48.9z M247.8,103.3
	c-0.5-4.9-2.5-9.8-6-14.8l0.7-0.4c6.3,2,10.2,5,11.8,8.9c1.1,2.5,0.9,4.6-0.3,6.3c-1,1.5-3,2-4.6,1.1
	C248.8,104.1,248.2,103.7,247.8,103.3L247.8,103.3z M161.6,64c3.5-5,6.4-10.4,8.8-16.1c5.8,3.6,8.7,5.8,8.7,6.5
	c0,0.2-0.2,0.3-0.6,0.3l-1.2,0.1c-4.8,4.3-10.1,8.1-15.7,11.2V69c7.6,1.8,12.5,4.8,14.9,8.9c1.4,2.5,1.6,4.7,0.4,6.5
	c-0.8,1.6-2.7,2.2-4.3,1.4c-0.6-0.2-1.1-0.4-1.6-0.8c-1.4-4.5-4.6-9.3-9.4-14.3V93c-0.1,0.7,0.1,1.4,0.6,1.9
	c0.7,0.4,1.5,0.6,2.2,0.5h5.2c1.9,0,3.4,0,4.5-0.1c0.7,0,1.4-0.3,2-0.8c0.8-1,1.7-3.5,2.9-7.6h0.7l0.3,7.8c2,1,3,2.2,3,3.6
	c0,1.8-1.1,3.2-3.1,4s-5.8,1.2-11.1,1.2h-6.3c-3.4,0-5.8-0.5-7-1.6s-1.9-3.2-1.9-6.3V54.2c0.1-4.8-0.2-9.7-0.9-14.4
	c7,1.6,10.5,2.8,10.4,3.5c0,0.2-0.2,0.4-0.5,0.6l-1.2,0.8L161.6,64z M76.3,64c-0.6,0.5-1.4,0.6-2.2,0.4c-0.6,0.7-1.8,1.8-3.6,3.4
	s-3,2.8-3.7,3.4l-0.7-0.7c1.1-3.6,1.8-7.3,2.1-11l8,3.9v-5.1H63.8v14.9h12.6V64z M261.7,45.3l1.5-1.9c0.1-0.1,0.3-0.3,0.7-0.8
	c0.3-0.3,0.5-0.6,0.8-0.9c0.1-0.1,0.3-0.2,0.5-0.3c0.5,0,1.7,0.8,3.9,2.4s3.2,2.7,3.2,3.2c-0.6,0.8-1.5,1.3-2.5,1.5v5.8
	c0.1,4.6,0.2,8.3,0.4,11.1c-0.2,0.4-1.1,0.9-2.6,1.4c-1.3,0.5-2.6,0.7-4,0.8c-1,0-1.5-0.5-1.5-1.4l0.3-1.1v-1.2h-9.2v13.8
	c-0.1,0.5,0.1,0.9,0.4,1.3c0.6,0.3,1.3,0.4,2,0.3h5c2.5,0,4,0,4.5-0.1c0.6,0.1,1.2-0.2,1.5-0.7c0.5-0.6,1.4-2.9,2.6-7h0.8l0.3,7.2
	c1.7,0.7,2.5,1.7,2.5,2.9c0,1.5-0.9,2.6-2.8,3.2s-5.2,0.9-10.2,0.9h-6c-3.1,0-5.1-0.4-6.1-1.3s-1.5-2.6-1.5-5.1V56.2
	c0-4.8-0.3-9.7-1-14.4l8.7,3.5H261.7z M262.4,61.7V47.3h-9.2v14.4H262.4z M256,87.8l0.5-0.5c7.8,2,12.9,5.2,15.3,9.5
	c1.5,2.7,1.6,5,0.5,7c-0.8,1.6-2.8,2.4-4.5,1.7c-0.7-0.2-1.3-0.6-1.9-1c-0.9-3-2.2-5.9-4-8.6C260.2,93,258.2,90.3,256,87.8z"/>
</svg>
